<svg xmlns="http://www.w3.org/2000/svg" width="24" height="24" fill="none" viewBox="0 0 24 24"><path stroke="#3A00FF" stroke-linecap="round" stroke-linejoin="round" stroke-width="1.5" d="M19.4484 12.0382C20.4419 11.0453 21 9.69864 21 8.29447C21 6.89029 20.4419 5.54362 19.4484 4.55071C18.4549 3.55781 17.1074 3 15.7024 3C14.2974 3 12.95 3.55781 11.9565 4.55071L6 10.5037V18H13.5007L19.4484 12.0382Z"/><path stroke="#3A00FF" stroke-linecap="round" stroke-linejoin="round" stroke-width="1.5" d="M16 8L3 21"/><path stroke="#3A00FF" stroke-linecap="round" stroke-linejoin="round" stroke-width="1.5" d="M18 13L11 13"/><path stroke="#FF76DF" stroke-linecap="round" stroke-linejoin="round" stroke-width="1.5" d="M9 22C13.8984 21.6202 14.822 20.3234 15.5232 20.5095C16.2245 20.6956 16.9488 21.309 17.2234 21.5925C17.6485 21.0902 18.6132 20.0693 19.071 20.0041C19.5287 19.9388 20.5477 20.6771 21 21.0544"/></svg>